# Alias OBJ Model File
# Exported from SketchUp, (c) 2000-2012 Trimble Navigation Limited
# File units = inches

mtllib bowling.mtl

g Mesh1 Model

usemtl FrontColor
v 8.52651e-14 223.194 -1284.01
vt -8.52651e-14 1284.01
vn 0.57735 -0.57735 0.57735
v -4221.75 223.194 -1284.01
vt 4221.75 1284.01
vn -0.57735 -0.57735 0.57735
v -4221.75 223.194 -2082.01
vt 4221.75 2082.01
vn -0.57735 -0.57735 -0.57735
v 8.52651e-14 223.194 -2082.01
vt -8.52651e-14 2082.01
vn 0.57735 -0.57735 -0.57735
f 1/1/1 2/2/2 3/3/3 4/4/4 

vt -4221.75 223.194
vt 8.52651e-14 223.194
v 8.52651e-14 363.444 -1284.01
vt 8.52651e-14 363.444
vn 0.57735 0.57735 0.57735
v -4221.75 363.444 -1284.01
vt -4221.75 363.444
vn -0.57735 0.57735 0.57735
f 2/5/2 1/6/1 5/7/5 6/8/6 

vt 1284.01 223.194
vt 2082.01 223.194
v 8.52651e-14 363.444 -2082.01
vt 2082.01 363.444
vn 0.57735 0.57735 -0.57735
v 8.52651e-14 363.444 -2058.85
vt 2058.85 363.444
vn 0.539595 0.656824 0.526706
v 8.52651e-14 344.451 -2054.62
vt 2054.62 344.451
vn 0.449926 0.299419 0.841377
v 8.52651e-14 327.057 -2045.9
vt 2045.9 327.057
vn 0.449926 0.495139 0.743239
v 8.52651e-14 312.309 -2033.21
vt 2033.21 312.309
vn 0.449926 0.661099 0.600429
v 8.52651e-14 301.091 -2017.31
vt 2017.31 301.091
vn 0.449926 0.787324 0.42153
v 8.52651e-14 294.079 -1999.16
vt 1999.16 294.079
vn 0.449926 0.866227 0.217295
v 8.52651e-14 291.694 -1979.85
vt 1979.85 291.694
vn 0.449926 0.893066 2.56003e-15
v 8.52651e-14 294.079 -1960.54
vt 1960.54 294.079
vn 0.449926 0.866227 -0.217295
v 8.52651e-14 301.091 -1942.39
vt 1942.39 301.091
vn 0.449926 0.787324 -0.42153
v 8.52651e-14 312.309 -1926.49
vt 1926.49 312.309
vn 0.449926 0.661099 -0.600429
v 8.52651e-14 327.057 -1913.8
vt 1913.8 327.057
vn 0.449926 0.495139 -0.743239
v 8.52651e-14 344.451 -1905.07
vt 1905.07 344.451
vn 0.449926 0.299419 -0.841377
v 8.52651e-14 363.444 -1900.85
vt 1900.85 363.444
vn 0.539595 0.656824 -0.526706
v 8.52651e-14 363.444 -1442.06
vt 1442.06 363.444
vn 0.553759 0.62604 0.549022
v 8.52651e-14 345.812 -1439.74
vt 1439.74 345.812
vn 0.450293 0.231095 0.862457
v 8.52651e-14 329.381 -1432.93
vt 1432.93 329.381
vn 0.450293 0.44644 0.773258
v 8.52651e-14 315.272 -1422.11
vt 1422.11 315.272
vn 0.450293 0.631362 0.631362
v 8.52651e-14 304.446 -1408
vt 1408 304.446
vn 0.450293 0.773258 0.44644
v 8.52651e-14 297.64 -1391.57
vt 1391.57 297.64
vn 0.450293 0.862457 0.231095
v 8.52651e-14 295.319 -1373.94
vt 1373.94 295.319
vn 0.450293 0.892881 -0
v 8.52651e-14 297.64 -1356.3
vt 1356.3 297.64
vn 0.450293 0.862457 -0.231095
v 8.52651e-14 304.446 -1339.87
vt 1339.87 304.446
vn 0.450293 0.773258 -0.44644
v 8.52651e-14 315.272 -1325.76
vt 1325.76 315.272
vn 0.450293 0.631362 -0.631362
v 8.52651e-14 329.381 -1314.94
vt 1314.94 329.381
vn 0.450293 0.44644 -0.773258
v 8.52651e-14 345.812 -1308.13
vt 1308.13 345.812
vn 0.450293 0.231095 -0.862457
v 8.52651e-14 363.444 -1305.81
vt 1305.81 363.444
vn 0.553759 0.62604 -0.549022
vt 1284.01 363.444
f 1/9/1 4/10/4 7/11/7 8/12/8 9/13/9 10/14/10 11/15/11 12/16/12 13/17/13 14/18/14 15/19/15 16/20/16 17/21/17 18/22/18 19/23/19 20/24/20 21/25/21 22/26/22 23/27/23 24/28/24 25/29/25 26/30/26 27/31/27 28/32/28 29/33/29 30/34/30 31/35/31 32/36/32 33/37/33 5/38/5 

vt -8.52651e-14 223.194
vt 4221.75 223.194
v -4221.75 363.444 -2082.01
vt 4221.75 363.444
vn -0.57735 0.57735 -0.57735
vt -8.52651e-14 363.444
f 4/39/4 3/40/3 34/41/34 7/42/7 

vt -1284.01 363.444
v -4221.75 363.444 -1305.81
vt -1305.81 363.444
vn -0.553759 0.62604 -0.549022
v -4221.75 345.812 -1308.13
vt -1308.13 345.812
vn -0.450293 0.231095 -0.862457
v -4221.75 329.381 -1314.94
vt -1314.94 329.381
vn -0.450293 0.44644 -0.773258
v -4221.75 315.272 -1325.76
vt -1325.76 315.272
vn -0.450293 0.631362 -0.631362
v -4221.75 304.446 -1339.87
vt -1339.87 304.446
vn -0.450293 0.773258 -0.44644
v -4221.75 297.64 -1356.3
vt -1356.3 297.64
vn -0.450293 0.862457 -0.231095
v -4221.75 295.319 -1373.94
vt -1373.94 295.319
vn -0.450293 0.892881 -0
v -4221.75 297.64 -1391.57
vt -1391.57 297.64
vn -0.450293 0.862457 0.231095
v -4221.75 304.446 -1408
vt -1408 304.446
vn -0.450293 0.773258 0.44644
v -4221.75 315.272 -1422.11
vt -1422.11 315.272
vn -0.450293 0.631362 0.631362
v -4221.75 329.381 -1432.93
vt -1432.93 329.381
vn -0.450293 0.44644 0.773258
v -4221.75 345.812 -1439.74
vt -1439.74 345.812
vn -0.450293 0.231095 0.862457
v -4221.75 363.444 -1442.06
vt -1442.06 363.444
vn -0.553759 0.62604 0.549022
v -4221.75 363.444 -1900.85
vt -1900.85 363.444
vn -0.539595 0.656824 -0.526706
v -4221.75 344.451 -1905.07
vt -1905.07 344.451
vn -0.449926 0.299419 -0.841377
v -4221.75 327.057 -1913.8
vt -1913.8 327.057
vn -0.449926 0.495139 -0.743239
v -4221.75 312.309 -1926.49
vt -1926.49 312.309
vn -0.449926 0.661099 -0.600429
v -4221.75 301.091 -1942.39
vt -1942.39 301.091
vn -0.449926 0.787324 -0.42153
v -4221.75 294.079 -1960.54
vt -1960.54 294.079
vn -0.449926 0.866227 -0.217295
v -4221.75 291.694 -1979.85
vt -1979.85 291.694
vn -0.449926 0.893066 2.56003e-15
v -4221.75 294.079 -1999.16
vt -1999.16 294.079
vn -0.449926 0.866227 0.217295
v -4221.75 301.091 -2017.31
vt -2017.31 301.091
vn -0.449926 0.787324 0.42153
v -4221.75 312.309 -2033.21
vt -2033.21 312.309
vn -0.449926 0.661099 0.600429
v -4221.75 327.057 -2045.9
vt -2045.9 327.057
vn -0.449926 0.495139 0.743239
v -4221.75 344.451 -2054.62
vt -2054.62 344.451
vn -0.449926 0.299419 0.841377
v -4221.75 363.444 -2058.85
vt -2058.85 363.444
vn -0.539595 0.656824 0.526706
vt -2082.01 363.444
vt -2082.01 223.194
vt -1284.01 223.194
f 6/43/6 35/44/35 36/45/36 37/46/37 38/47/38 39/48/39 40/49/40 41/50/41 42/51/42 43/52/43 44/53/44 45/54/45 46/55/46 47/56/47 48/57/48 49/58/49 50/59/50 51/60/51 52/61/52 53/62/53 54/63/54 55/64/55 56/65/56 57/66/57 58/67/58 59/68/59 60/69/60 34/70/34 3/71/3 2/72/2 

vt 8.52651e-14 1284.01
vt 8.52651e-14 1305.81
vt -4221.75 1305.81
vt -4221.75 1284.01
f 5/73/5 33/74/33 35/75/35 6/76/6 

usemtl _Chipboard_
vt 4221.75 172.108
vt 4221.75 189.892
vt -8.52651e-14 189.892
vt -8.52651e-14 172.108
f 36/77/36 35/78/35 33/79/33 32/80/32 

vt 4221.75 -198.896
vt 4221.75 -181.112
vt -8.52651e-14 -181.112
vt -8.52651e-14 -198.896
f 37/81/37 36/82/36 32/83/32 31/84/31 

vt 4221.75 -556.952
vt 4221.75 -539.168
vt -8.52651e-14 -539.168
vt -8.52651e-14 -556.952
f 38/85/38 37/86/37 31/87/31 30/88/30 

vt 4221.75 -877.658
vt 4221.75 -859.874
vt -8.52651e-14 -859.874
vt -8.52651e-14 -877.658
f 39/89/39 38/90/38 30/91/30 29/92/29 

vt 4221.75 -1139.16
vt 4221.75 -1121.38
vt -8.52651e-14 -1121.38
vt -8.52651e-14 -1139.16
f 40/93/40 39/94/39 29/95/29 28/96/28 

vt 4221.75 -1323.63
vt 4221.75 -1305.85
vt -8.52651e-14 -1305.85
vt -8.52651e-14 -1323.63
f 41/97/41 40/98/40 28/99/28 27/100/27 

vt -4221.75 1418.51
vt -4221.75 1400.73
vt 8.52651e-14 1400.73
vt 8.52651e-14 1418.51
f 42/101/42 41/102/41 27/103/27 26/104/26 

vt -4221.75 1417.33
vt -4221.75 1399.54
vt 8.52651e-14 1399.54
vt 8.52651e-14 1417.33
f 43/105/43 42/106/42 26/107/26 25/108/25 

vt -4221.75 1320.16
vt -4221.75 1302.38
vt 8.52651e-14 1302.38
vt 8.52651e-14 1320.16
f 44/109/44 43/110/43 25/111/25 24/112/24 

vt -4221.75 1133.63
vt -4221.75 1115.85
vt 8.52651e-14 1115.85
vt 8.52651e-14 1133.63
f 45/113/45 44/114/44 24/115/24 23/116/23 

vt -4221.75 870.453
vt -4221.75 852.669
vt 8.52651e-14 852.669
vt 8.52651e-14 870.453
f 46/117/46 45/118/45 23/119/23 22/120/22 

vt -4221.75 548.561
vt -4221.75 530.777
vt 8.52651e-14 530.777
vt 8.52651e-14 548.561
f 47/121/47 46/122/46 22/123/22 21/124/21 

usemtl bowling_lane
v -3319.18 363.444 -1655.72
vt 0.213791 0.465705
vn 0 1 -4.95599e-16
vt 0 4.44089e-16
vt 1 4.44089e-16
f 61/125/61 47/126/47 21/127/21

v -3352.29 363.444 -1659.13
vt 0.205947 0.473131
f 62/128/61 47/126/47 61/125/61

v -3385.17 363.444 -1664.35
vt 0.198161 0.484525
f 63/129/61 47/126/47 62/128/61

v -3417.7 363.444 -1671.39
vt 0.190454 0.499851
f 64/130/61 47/126/47 63/129/61

v -3449.8 363.444 -1680.2
vt 0.18285 0.519063
f 65/131/61 47/126/47 64/130/61

vt 0 1
f 47/126/47 65/131/61 48/132/48

v -3453.05 363.444 -1694.06
vt 0.182082 0.549283
f 48/132/48 65/131/61 66/133/61

usemtl bowling_lane1_
vt -1.36273 0.884934
vt -1.36145 0.877691
vt -1.34878 0.873087
vt -1.33594 0.869414
vt -1.32297 0.866684
vt -1.3099 0.864904
v -3285.93 363.444 -1654.14
vt -1.29678 0.86408
v -3252.64 363.444 -1654.4
vt -1.28364 0.864216
v -3219.42 363.444 -1656.5
vt -1.27053 0.865309
v -3204.03 363.444 -1658.32
vt -1.26446 0.866263
vn -5.27785e-16 1 -7.93141e-16
v -3186.36 363.444 -1660.42
vt -1.25748 0.867358
vn -7.91677e-16 1 -6.94113e-16
v -3153.57 363.444 -1666.16
vt -1.24454 0.870355
v -3121.15 363.444 -1673.69
vt -1.23175 0.874292
v -3089.19 363.444 -1683
vt -1.21914 0.879156
v -3057.8 363.444 -1694.06
vt -1.20675 0.884934
v -3089.56 363.444 -1705.35
vt -1.21928 0.890832
v -3121.96 363.444 -1714.65
vt -1.23207 0.895688
v -3154.87 363.444 -1721.92
vt -1.24506 0.899485
v -3188.17 363.444 -1727.13
vt -1.2582 0.902208
v -3204.03 363.444 -1728.61
vt -1.26446 0.902982
v -3221.73 363.444 -1730.27
vt -1.27144 0.903846
v -3255.42 363.444 -1731.31
vt -1.28474 0.904392
v -3289.11 363.444 -1730.27
vt -1.29803 0.903846
v -3322.67 363.444 -1727.13
vt -1.31128 0.902208
v -3355.97 363.444 -1721.92
vt -1.32442 0.899485
v -3388.89 363.444 -1714.65
vt -1.33741 0.895688
v -3421.29 363.444 -1705.35
vt -1.3502 0.890832
f 66/134/61 65/135/61 64/136/61 63/137/61 62/138/61 61/139/61 67/140/61 68/141/61 69/142/61 70/143/62 71/144/63 72/145/63 73/146/63 74/147/63 75/148/63 76/149/63 77/150/63 78/151/63 79/152/63 80/153/62 81/154/61 82/155/61 83/156/61 84/157/61 85/158/61 86/159/61 87/160/61 

usemtl bowling_lane
vt 0.221667 0.462269
f 61/125/61 21/127/21 67/161/61

vt 0.229551 0.462834
f 67/161/61 21/127/21 68/162/61

vt 0.23742 0.467397
f 68/162/61 21/127/21 69/163/61

vt 0.241066 0.471376
f 69/163/61 21/127/21 70/164/62

v -3064.7 363.444 -1663.79
vt 0.274068 0.483301
vn -7.91677e-16 1 -1.18971e-15
f 70/164/62 21/127/21 88/165/64

v -3021.26 363.444 -1698.73
vt 0.284358 0.55946
f 88/165/64 21/127/21 89/166/64

vt 1 1
f 20/167/20 89/166/64 21/127/21

v -3068.03 363.444 -1728.61
vt 0.27328 0.624591
f 20/167/20 90/168/64 89/166/64

vt 0.241066 0.624591
f 20/167/20 80/169/62 90/168/64

vt 0.236873 0.628195
f 20/167/20 81/170/61 80/169/62

vt 0.228893 0.630476
f 20/167/20 82/171/61 81/170/61

vt 0.220913 0.628195
f 20/167/20 83/172/61 82/171/61

f 48/132/48 83/172/61 20/167/20

vt 0.212963 0.621361
f 83/172/61 48/132/48 84/173/61

vt 0.205075 0.610001
f 84/173/61 48/132/48 85/174/61

vt 0.197279 0.594157
f 85/174/61 48/132/48 86/175/61

vt 0.189604 0.573892
f 86/175/61 48/132/48 87/176/61

f 87/176/61 48/132/48 66/133/61

usemtl _Chipboard_
vt 4221.75 -77.6644
vt 4221.75 -58.2067
vt -8.52651e-14 -58.2067
vt -8.52651e-14 -77.6644
f 49/177/49 48/178/48 20/179/20 19/180/19 

vt 4221.75 -565.455
vt 4221.75 -545.998
vt -8.52651e-14 -545.998
vt -8.52651e-14 -565.455
f 50/181/50 49/182/49 19/183/19 18/184/18 

vt 4221.75 -1019.84
vt 4221.75 -1000.39
vt -8.52651e-14 -1000.39
vt -8.52651e-14 -1019.84
f 51/185/51 50/186/50 18/187/18 17/188/17 

vt 4221.75 -1413.52
vt 4221.75 -1394.06
vt -8.52651e-14 -1394.06
vt -8.52651e-14 -1413.52
f 52/189/52 51/190/51 17/191/17 16/192/16 

vt 4221.75 -1722.82
vt 4221.75 -1703.36
vt -8.52651e-14 -1703.36
vt -8.52651e-14 -1722.82
f 53/193/53 52/194/52 16/195/16 15/196/15 

vt 4221.75 -1929.16
vt 4221.75 -1909.7
vt -8.52651e-14 -1909.7
vt -8.52651e-14 -1929.16
f 54/197/54 53/198/53 15/199/15 14/200/14 

vt -4221.75 2020.13
vt -4221.75 2000.67
vt 8.52651e-14 2000.67
vt 8.52651e-14 2020.13
f 55/201/55 54/202/54 14/203/14 13/204/13 

vt -4221.75 1990.27
vt -4221.75 1970.81
vt 8.52651e-14 1970.81
vt 8.52651e-14 1990.27
f 56/205/56 55/206/55 13/207/13 12/208/12 

vt -4221.75 1841.36
vt -4221.75 1821.9
vt 8.52651e-14 1821.9
vt 8.52651e-14 1841.36
f 57/209/57 56/210/56 12/211/12 11/212/11 

vt -4221.75 1582.37
vt -4221.75 1562.91
vt 8.52651e-14 1562.91
vt 8.52651e-14 1582.37
f 58/213/58 57/214/57 11/215/11 10/216/10 

vt -4221.75 1228.85
vt -4221.75 1209.39
vt 8.52651e-14 1209.39
vt 8.52651e-14 1228.85
f 59/217/59 58/218/58 10/219/10 9/220/9 

vt -4221.75 802.059
vt -4221.75 782.601
vt 8.52651e-14 782.601
vt 8.52651e-14 802.059
f 60/221/60 59/222/59 9/223/9 8/224/8 

usemtl FrontColor
vt -4221.75 2058.85
vt 8.52651e-14 2058.85
vt 8.52651e-14 2082.01
vt -4221.75 2082.01
f 60/225/60 8/226/8 7/227/7 34/228/34 

usemtl bowling_lane1_
vt -1.20947 0.869121
vt -1.19233 0.887373
vt -1.21078 0.902982
f 71/144/63 70/143/62 88/229/64 89/230/64 90/231/64 80/153/62 79/152/63 78/151/63 77/150/63 76/149/63 75/148/63 74/147/63 73/146/63 72/145/63 

